<?xml version="1.0" encoding="UTF-8"?>
<!--Generator: Apple Native CoreSVG 175.5-->
<!DOCTYPE svg
PUBLIC "-//W3C//DTD SVG 1.1//EN"
       "http://www.w3.org/Graphics/SVG/1.1/DTD/svg11.dtd">
<svg version="1.1" xmlns="http://www.w3.org/2000/svg" xmlns:xlink="http://www.w3.org/1999/xlink" width="387.891" height="370.508">
 <g>
  <rect height="370.508" opacity="0" width="387.891" x="0" y="0"/>
  <path d="M0 129.883C0 213.086 69.7266 294.922 179.883 365.234C183.984 367.773 189.844 370.508 193.945 370.508C198.047 370.508 203.906 367.773 208.203 365.234C318.164 294.922 387.891 213.086 387.891 129.883C387.891 60.7422 340.43 11.9141 277.148 11.9141C241.016 11.9141 211.719 29.1016 193.945 55.4688C176.562 29.2969 146.875 11.9141 110.742 11.9141C47.4609 11.9141 0 60.7422 0 129.883ZM31.4453 129.883C31.4453 77.9297 65.0391 43.3594 110.352 43.3594C147.07 43.3594 168.164 66.2109 180.664 85.7422C185.938 93.5547 189.258 95.7031 193.945 95.7031C198.633 95.7031 201.562 93.3594 207.227 85.7422C220.703 66.6016 241.016 43.3594 277.539 43.3594C322.852 43.3594 356.445 77.9297 356.445 129.883C356.445 202.539 279.688 280.859 198.047 335.156C196.094 336.523 194.727 337.5 193.945 337.5C193.164 337.5 191.797 336.523 190.039 335.156C108.203 280.859 31.4453 202.539 31.4453 129.883Z" fill="#0a84ff"/>
 </g>
</svg>
