<?xml version="1.0" encoding="UTF-8"?>
<!--Generator: Apple Native CoreSVG 175.5-->
<!DOCTYPE svg
PUBLIC "-//W3C//DTD SVG 1.1//EN"
       "http://www.w3.org/Graphics/SVG/1.1/DTD/svg11.dtd">
<svg version="1.1" xmlns="http://www.w3.org/2000/svg" xmlns:xlink="http://www.w3.org/1999/xlink" width="433.752" height="442.383">
 <g>
  <rect height="442.383" opacity="0" width="433.752" x="0" y="0"/>
  <path d="M83.2219 410.938C91.2297 417.188 101.386 415.039 113.495 406.25L216.816 330.273L320.331 406.25C332.441 415.039 342.402 417.188 350.605 410.938C358.613 404.883 360.37 394.922 355.488 380.664L314.667 259.18L418.964 184.18C431.073 175.586 435.956 166.602 432.831 156.836C429.706 147.461 420.527 142.773 405.488 142.969L277.558 143.75L238.691 21.6797C234.003 7.22656 226.972 0 216.816 0C206.855 0 199.823 7.22656 195.136 21.6797L156.269 143.75L28.3391 142.969C13.3 142.773 4.12034 147.461 0.995335 156.836C-2.32498 166.602 2.75315 175.586 14.8625 184.18L119.159 259.18L78.3391 380.664C73.4563 394.922 75.2141 404.883 83.2219 410.938Z" fill="#0a84ff"/>
 </g>
</svg>
