<?xml version="1.0" encoding="UTF-8"?>
<!--Generator: Apple Native CoreSVG 232.5-->
<!DOCTYPE svg
PUBLIC "-//W3C//DTD SVG 1.1//EN"
       "http://www.w3.org/Graphics/SVG/1.1/DTD/svg11.dtd">
<svg version="1.1" xmlns="http://www.w3.org/2000/svg" xmlns:xlink="http://www.w3.org/1999/xlink" width="263.281" height="419.727">
 <g>
  <rect height="419.727" opacity="0" width="263.281" x="0" y="0"/>
  <path d="M20.7031 418.945C30.2734 418.945 35.9375 413.477 53.5156 396.484L129.883 321.289C130.859 320.312 132.617 320.312 133.398 321.289L209.766 396.484C227.344 413.477 233.008 418.945 242.578 418.945C255.664 418.945 263.281 410.352 263.281 395.117L263.281 56.0547C263.281 18.9453 244.727 0 208.008 0L55.2734 0C18.5547 0 0 18.9453 0 56.0547L0 395.117C0 410.352 7.61719 418.945 20.7031 418.945Z" fill="#0a84ff"/>
 </g>
</svg>
