<?xml version="1.0" encoding="UTF-8"?>
<!--Generator: Apple Native CoreSVG 175.5-->
<!DOCTYPE svg
PUBLIC "-//W3C//DTD SVG 1.1//EN"
       "http://www.w3.org/Graphics/SVG/1.1/DTD/svg11.dtd">
<svg version="1.1" xmlns="http://www.w3.org/2000/svg" xmlns:xlink="http://www.w3.org/1999/xlink" width="433.752" height="442.383">
 <g>
  <rect height="442.383" opacity="0" width="433.752" x="0" y="0"/>
  <path d="M83.2219 410.938C91.2297 417.188 101.386 415.039 113.495 406.25L216.816 330.273L320.331 406.25C332.441 415.039 342.402 417.188 350.605 410.938C358.613 404.883 360.37 394.922 355.488 380.664L314.667 259.18L418.964 184.18C431.073 175.586 435.956 166.602 432.831 156.836C429.706 147.461 420.527 142.773 405.488 142.969L277.558 143.75L238.691 21.6797C234.003 7.22656 226.972 0 216.816 0C206.855 0 199.823 7.22656 195.136 21.6797L156.269 143.75L28.3391 142.969C13.3 142.773 4.12034 147.461 0.995335 156.836C-2.32498 166.602 2.75315 175.586 14.8625 184.18L119.159 259.18L78.3391 380.664C73.4563 394.922 75.2141 404.883 83.2219 410.938ZM111.347 372.266C110.956 371.875 111.152 371.68 111.347 370.508L150.214 258.789C152.948 251.172 151.386 245.117 144.55 240.43L47.2844 173.242C46.3078 172.656 46.1125 172.266 46.3078 171.68C46.5031 171.094 46.8938 171.094 48.0656 171.094L166.23 173.242C174.238 173.438 179.316 170.117 181.855 162.109L215.839 49.0234C216.034 47.8516 216.425 47.4609 216.816 47.4609C217.402 47.4609 217.792 47.8516 217.988 49.0234L251.972 162.109C254.511 170.117 259.589 173.438 267.597 173.242L385.761 171.094C386.933 171.094 387.323 171.094 387.519 171.68C387.714 172.266 387.323 172.656 386.542 173.242L289.277 240.43C282.441 245.117 280.878 251.172 283.613 258.789L322.48 370.508C322.675 371.68 322.87 371.875 322.48 372.266C322.089 372.852 321.503 372.461 320.722 371.875L226.777 300.195C220.527 295.312 213.3 295.312 207.05 300.195L113.105 371.875C112.323 372.461 111.738 372.852 111.347 372.266Z" fill="#0a84ff"/>
 </g>
</svg>
